<svg xmlns="http://www.w3.org/2000/svg" width="1600" height="700" viewBox="0 0 1600 700">
<defs>
<radialGradient id="r" cx="22%" cy="30%" r="90%"><stop offset="0%" stop-color="#2b3a67"/><stop offset="60%" stop-color="#0c0e14"/><stop offset="100%" stop-color="#07080a"/></radialGradient>
<linearGradient id="l" x1="0" y1="0" x2="1" y2="1"><stop offset="0%" stop-color="#ff5f68" stop-opacity="0.5"/><stop offset="55%" stop-color="#ff5f68" stop-opacity="0"/></linearGradient>

</defs>
<rect width="1600" height="700" fill="url(#r)"/>
<circle cx="1248" cy="210" r="294" fill="#ff5f68" opacity="0.13"/>
<circle cx="1248" cy="210" r="196.00000000000003" fill="none" stroke="#ff5f68" stroke-opacity="0.35" stroke-width="2"/>
<circle cx="1248" cy="210" r="112" fill="none" stroke="#ff5f68" stroke-opacity="0.5" stroke-width="1.5"/>
<circle cx="1248" cy="210" r="14" fill="#ff5f68"/>
<rect x="0" y="483" width="38" height="217" fill="#ff5f68" opacity="0.16"/><rect x="57" y="482" width="38" height="218" fill="#ff5f68" opacity="0.16"/><rect x="114" y="441" width="38" height="259" fill="#ff5f68" opacity="0.16"/><rect x="171" y="534" width="38" height="166" fill="#ff5f68" opacity="0.16"/><rect x="229" y="413" width="38" height="287" fill="#ff5f68" opacity="0.16"/><rect x="286" y="593" width="38" height="107" fill="#ff5f68" opacity="0.16"/><rect x="343" y="400" width="38" height="300" fill="#ff5f68" opacity="0.16"/><rect x="400" y="632" width="38" height="68" fill="#ff5f68" opacity="0.16"/><rect x="457" y="403" width="38" height="297" fill="#ff5f68" opacity="0.16"/><rect x="514" y="570" width="38" height="130" fill="#ff5f68" opacity="0.16"/><rect x="571" y="422" width="38" height="278" fill="#ff5f68" opacity="0.16"/><rect x="629" y="512" width="38" height="188" fill="#ff5f68" opacity="0.16"/><rect x="686" y="456" width="38" height="244" fill="#ff5f68" opacity="0.16"/><rect x="743" y="464" width="38" height="236" fill="#ff5f68" opacity="0.16"/><rect x="800" y="502" width="38" height="198" fill="#ff5f68" opacity="0.16"/><rect x="857" y="427" width="38" height="273" fill="#ff5f68" opacity="0.16"/><rect x="914" y="558" width="38" height="142" fill="#ff5f68" opacity="0.16"/><rect x="971" y="405" width="38" height="295" fill="#ff5f68" opacity="0.16"/><rect x="1029" y="620" width="38" height="80" fill="#ff5f68" opacity="0.16"/><rect x="1086" y="399" width="38" height="301" fill="#ff5f68" opacity="0.16"/><rect x="1143" y="605" width="38" height="95" fill="#ff5f68" opacity="0.16"/><rect x="1200" y="409" width="38" height="291" fill="#ff5f68" opacity="0.16"/><rect x="1257" y="545" width="38" height="155" fill="#ff5f68" opacity="0.16"/><rect x="1314" y="435" width="38" height="265" fill="#ff5f68" opacity="0.16"/><rect x="1371" y="491" width="38" height="209" fill="#ff5f68" opacity="0.16"/><rect x="1429" y="474" width="38" height="226" fill="#ff5f68" opacity="0.16"/><rect x="1486" y="447" width="38" height="253" fill="#ff5f68" opacity="0.16"/><rect x="1543" y="525" width="38" height="175" fill="#ff5f68" opacity="0.16"/>
<rect width="1600" height="700" fill="url(#l)"/>
<text x="80" y="616" font-family="Arial Black, Arial" font-weight="900" font-size="77" fill="#f5f5f3" opacity="0.92" letter-spacing="4">RAPLAB</text>

</svg>