<svg xmlns="http://www.w3.org/2000/svg" width="1600" height="700" viewBox="0 0 1600 700">
<defs>
<radialGradient id="r" cx="22%" cy="30%" r="90%"><stop offset="0%" stop-color="#3a2d1d"/><stop offset="60%" stop-color="#171208"/><stop offset="100%" stop-color="#07080a"/></radialGradient>
<linearGradient id="l" x1="0" y1="0" x2="1" y2="1"><stop offset="0%" stop-color="#e8b64c" stop-opacity="0.5"/><stop offset="55%" stop-color="#e8b64c" stop-opacity="0"/></linearGradient>

</defs>
<rect width="1600" height="700" fill="url(#r)"/>
<circle cx="1248" cy="210" r="294" fill="#e8b64c" opacity="0.13"/>
<circle cx="1248" cy="210" r="196.00000000000003" fill="none" stroke="#e8b64c" stroke-opacity="0.35" stroke-width="2"/>
<circle cx="1248" cy="210" r="112" fill="none" stroke="#e8b64c" stroke-opacity="0.5" stroke-width="1.5"/>
<circle cx="1248" cy="210" r="14" fill="#e8b64c"/>
<rect x="0" y="409" width="38" height="291" fill="#e8b64c" opacity="0.16"/><rect x="57" y="545" width="38" height="155" fill="#e8b64c" opacity="0.16"/><rect x="114" y="435" width="38" height="265" fill="#e8b64c" opacity="0.16"/><rect x="171" y="491" width="38" height="209" fill="#e8b64c" opacity="0.16"/><rect x="229" y="474" width="38" height="226" fill="#e8b64c" opacity="0.16"/><rect x="286" y="447" width="38" height="253" fill="#e8b64c" opacity="0.16"/><rect x="343" y="525" width="38" height="175" fill="#e8b64c" opacity="0.16"/><rect x="400" y="416" width="38" height="284" fill="#e8b64c" opacity="0.16"/><rect x="457" y="583" width="38" height="117" fill="#e8b64c" opacity="0.16"/><rect x="514" y="401" width="38" height="299" fill="#e8b64c" opacity="0.16"/><rect x="571" y="642" width="38" height="58" fill="#e8b64c" opacity="0.16"/><rect x="629" y="401" width="38" height="299" fill="#e8b64c" opacity="0.16"/><rect x="686" y="579" width="38" height="121" fill="#e8b64c" opacity="0.16"/><rect x="743" y="418" width="38" height="282" fill="#e8b64c" opacity="0.16"/><rect x="800" y="521" width="38" height="179" fill="#e8b64c" opacity="0.16"/><rect x="857" y="450" width="38" height="250" fill="#e8b64c" opacity="0.16"/><rect x="914" y="471" width="38" height="229" fill="#e8b64c" opacity="0.16"/><rect x="971" y="494" width="38" height="206" fill="#e8b64c" opacity="0.16"/><rect x="1029" y="432" width="38" height="268" fill="#e8b64c" opacity="0.16"/><rect x="1086" y="549" width="38" height="151" fill="#e8b64c" opacity="0.16"/><rect x="1143" y="408" width="38" height="292" fill="#e8b64c" opacity="0.16"/><rect x="1200" y="610" width="38" height="90" fill="#e8b64c" opacity="0.16"/><rect x="1257" y="399" width="38" height="301" fill="#e8b64c" opacity="0.16"/><rect x="1314" y="615" width="38" height="85" fill="#e8b64c" opacity="0.16"/><rect x="1371" y="406" width="38" height="294" fill="#e8b64c" opacity="0.16"/><rect x="1429" y="554" width="38" height="146" fill="#e8b64c" opacity="0.16"/><rect x="1486" y="430" width="38" height="270" fill="#e8b64c" opacity="0.16"/><rect x="1543" y="499" width="38" height="201" fill="#e8b64c" opacity="0.16"/>
<rect width="1600" height="700" fill="url(#l)"/>
<text x="80" y="616" font-family="Arial Black, Arial" font-weight="900" font-size="77" fill="#f5f5f3" opacity="0.92" letter-spacing="4">SEMA K</text>

</svg>