<svg xmlns="http://www.w3.org/2000/svg" width="1200" height="1200" viewBox="0 0 1200 1200">
<defs><radialGradient id="r" cx="35%" cy="35%" r="95%"><stop offset="0%" stop-color="#0e0819"/><stop offset="100%" stop-color="#060708"/></radialGradient></defs>
<rect width="1200" height="1200" fill="url(#r)"/>
<line x1="0" y1="0" x2="1200" y2="0" stroke="#6f42c8" stroke-opacity="0.07"/><line x1="0" y1="100" x2="1200" y2="100" stroke="#6f42c8" stroke-opacity="0.07"/><line x1="0" y1="200" x2="1200" y2="200" stroke="#6f42c8" stroke-opacity="0.07"/><line x1="0" y1="300" x2="1200" y2="300" stroke="#6f42c8" stroke-opacity="0.07"/><line x1="0" y1="400" x2="1200" y2="400" stroke="#6f42c8" stroke-opacity="0.07"/><line x1="0" y1="500" x2="1200" y2="500" stroke="#6f42c8" stroke-opacity="0.07"/><line x1="0" y1="600" x2="1200" y2="600" stroke="#6f42c8" stroke-opacity="0.07"/><line x1="0" y1="700" x2="1200" y2="700" stroke="#6f42c8" stroke-opacity="0.07"/><line x1="0" y1="800" x2="1200" y2="800" stroke="#6f42c8" stroke-opacity="0.07"/><line x1="0" y1="900" x2="1200" y2="900" stroke="#6f42c8" stroke-opacity="0.07"/><line x1="0" y1="1000" x2="1200" y2="1000" stroke="#6f42c8" stroke-opacity="0.07"/><line x1="0" y1="1100" x2="1200" y2="1100" stroke="#6f42c8" stroke-opacity="0.07"/>
<circle cx="840" cy="480" r="300" fill="#6f42c8" opacity="0.14"/>
<circle cx="840" cy="480" r="168.00000000000003" fill="none" stroke="#6f42c8" stroke-opacity="0.5" stroke-width="3"/>
<text x="72" y="1080" font-family="Arial Black, Arial" font-weight="900" font-size="84.00000000000001" fill="#6f42c8" opacity="0.85" letter-spacing="6">SET 04</text>

</svg>