<svg xmlns="http://www.w3.org/2000/svg" width="1280" height="720" viewBox="0 0 1280 720">
<defs><radialGradient id="r" cx="35%" cy="35%" r="95%"><stop offset="0%" stop-color="#10091e"/><stop offset="100%" stop-color="#060708"/></radialGradient></defs>
<rect width="1280" height="720" fill="url(#r)"/>
<line x1="0" y1="0" x2="1280" y2="0" stroke="#9d6bff" stroke-opacity="0.07"/><line x1="0" y1="60" x2="1280" y2="60" stroke="#9d6bff" stroke-opacity="0.07"/><line x1="0" y1="120" x2="1280" y2="120" stroke="#9d6bff" stroke-opacity="0.07"/><line x1="0" y1="180" x2="1280" y2="180" stroke="#9d6bff" stroke-opacity="0.07"/><line x1="0" y1="240" x2="1280" y2="240" stroke="#9d6bff" stroke-opacity="0.07"/><line x1="0" y1="300" x2="1280" y2="300" stroke="#9d6bff" stroke-opacity="0.07"/><line x1="0" y1="360" x2="1280" y2="360" stroke="#9d6bff" stroke-opacity="0.07"/><line x1="0" y1="420" x2="1280" y2="420" stroke="#9d6bff" stroke-opacity="0.07"/><line x1="0" y1="480" x2="1280" y2="480" stroke="#9d6bff" stroke-opacity="0.07"/><line x1="0" y1="540" x2="1280" y2="540" stroke="#9d6bff" stroke-opacity="0.07"/><line x1="0" y1="600" x2="1280" y2="600" stroke="#9d6bff" stroke-opacity="0.07"/><line x1="0" y1="660" x2="1280" y2="660" stroke="#9d6bff" stroke-opacity="0.07"/>
<circle cx="896" cy="288" r="180" fill="#9d6bff" opacity="0.14"/>
<circle cx="896" cy="288" r="100.80000000000001" fill="none" stroke="#9d6bff" stroke-opacity="0.5" stroke-width="3"/>
<text x="76.8" y="648" font-family="Arial Black, Arial" font-weight="900" font-size="50.400000000000006" fill="#9d6bff" opacity="0.85" letter-spacing="6">ÇATI</text>

</svg>